<svg width="660" height="660" viewBox="0 0 660 660" fill="none" xmlns="http://www.w3.org/2000/svg">
<g filter="url(#filter0_d_6_14)">
<circle cx="330" cy="314" r="300" fill="white"/>
</g>
<path d="M445 397C445 412.102 442.025 427.056 436.246 441.009C430.467 454.961 421.996 467.639 411.317 478.317C400.639 488.996 387.961 497.467 374.009 503.246C360.056 509.025 345.102 512 330 512C314.898 512 299.944 509.025 285.991 503.246C272.039 497.467 259.361 488.996 248.683 478.317C238.004 467.639 229.533 454.961 223.754 441.009C217.975 427.056 215 412.102 215 397L330 397H445Z" fill="#001030"/>
<path d="M393 397C393 404.879 391.319 412.681 388.052 419.961C384.786 427.241 379.998 433.855 373.962 439.426C367.926 444.998 360.761 449.417 352.874 452.433C344.988 455.448 336.536 457 328 457C319.464 457 311.012 455.448 303.126 452.433C295.239 449.417 288.074 444.998 282.038 439.426C276.002 433.855 271.214 427.241 267.948 419.961C264.681 412.681 263 404.879 263 397L328 397H393Z" fill="white"/>
<path d="M353.133 388.594H306.258C305.737 377.005 303.458 368.477 299.422 363.008C295.385 357.409 289.07 353.177 280.477 350.312C271.883 347.318 257.365 345.82 236.922 345.82C211.141 345.82 193.562 344.648 184.188 342.305C174.682 339.961 167.13 336.25 161.531 331.172C155.802 325.964 151.115 318.411 147.469 308.516C143.823 298.49 142 284.102 142 265.352V255H188.875C188.875 268.932 189.656 278.047 191.219 282.344C192.651 286.641 195.06 289.831 198.445 291.914C201.831 293.867 208.081 294.844 217.195 294.844C233.602 294.844 251.896 295.625 272.078 297.188C285.229 298.229 297.013 301.81 307.43 307.93C315.112 312.487 322.599 320.365 329.891 331.562C335.359 322.057 342.326 314.505 350.789 308.906C359.122 303.307 369.734 299.596 382.625 297.773C388.224 296.992 406.453 296.081 437.312 295.039C448.641 294.648 455.672 293.932 458.406 292.891C462.443 291.198 465.503 288.073 467.586 283.516C469.669 278.828 470.711 269.323 470.711 255H517.391V265.352C517.391 284.232 515.828 298.229 512.703 307.344C509.708 316.458 505.216 323.88 499.227 329.609C493.367 335.339 485.88 339.505 476.766 342.109C467.781 344.583 452.221 345.82 430.086 345.82C405.346 345.82 388.68 347.188 380.086 349.922C371.362 352.526 364.852 356.693 360.555 362.422C356.258 368.021 353.784 376.745 353.133 388.594Z" fill="#0057FF"/>
<path d="M254 271.88L310.96 117H349.36L406.32 271.88H361.84L330.16 183.734L298.48 271.88H254Z" fill="#001030"/>
<rect x="291" y="232" width="75" height="40" fill="#001030"/>
<defs>
<filter id="filter0_d_6_14" x="0" y="0" width="660" height="660" filterUnits="userSpaceOnUse" color-interpolation-filters="sRGB">
<feFlood flood-opacity="0" result="BackgroundImageFix"/>
<feColorMatrix in="SourceAlpha" type="matrix" values="0 0 0 0 0 0 0 0 0 0 0 0 0 0 0 0 0 0 127 0" result="hardAlpha"/>
<feOffset dy="16"/>
<feGaussianBlur stdDeviation="15"/>
<feColorMatrix type="matrix" values="0 0 0 0 0 0 0 0 0 0.341176 0 0 0 0 1 0 0 0 0.25 0"/>
<feBlend mode="normal" in2="BackgroundImageFix" result="effect1_dropShadow_6_14"/>
<feBlend mode="normal" in="SourceGraphic" in2="effect1_dropShadow_6_14" result="shape"/>
</filter>
</defs>
</svg>
